<?xml version="1.0"?><svg fill="black" xmlns="http://www.w3.org/2000/svg"  viewBox="0 0 30 30" width="480px" height="480px">    <path d="M 7.6230469 3.2109375 L 18 13.585938 L 20.677734 10.908203 C 17.018734 8.6882031 12.118063 5.7100938 9.9140625 4.3710938 L 8.4375 3.4765625 C 8.1765 3.3175625 7.8970469 3.2319375 7.6230469 3.2109375 z M 6.0390625 4.453125 C 6.0180625 4.567125 6 4.6816875 6 4.8046875 L 6 25.308594 C 6 25.394594 6.0172969 25.474641 6.0292969 25.556641 L 16.585938 15 L 6.0390625 4.453125 z M 22.4375 11.976562 L 19.414062 15 L 22.384766 17.970703 C 23.958766 17.016703 25.048922 16.35425 25.169922 16.28125 C 25.704922 15.95425 26.007047 15.460875 25.998047 14.921875 C 25.990047 14.392875 25.687828 13.919906 25.173828 13.628906 C 25.058828 13.562906 23.9835 12.913563 22.4375 11.976562 z M 18 16.414062 L 7.6542969 26.759766 C 7.8552969 26.724766 8.0560469 26.664828 8.2480469 26.548828 C 8.5140469 26.386828 15.7 22.027062 20.625 19.039062 L 18 16.414062 z"/></svg>